# xmcd CD database file
#
# Track frame offsets:
#	150
#	76151
#	89362
#	101037
#	115003
#	212645
#	225874
#	239695
#	253535
#	266523
#
# Disc length: 4740 seconds
#
# Revision: 0
# Processed by: cddbd v1.4PL0 Copyright (c) Steve Scherf et al.
# Submitted via: CDex 1.50beta10
#
DISCID=7712820a
DTITLE=Dexter Gordon 1/4 - 'Bop'
DYEAR=1900
DGENRE=Jazz
TTITLE0=Dexter Gordon - After Hours Bop
TTITLE1=Dexter Gordon - Aint gonna quit you baby
TTITLE2=Dexter Gordon - Airplane Blues
TTITLE3=Dexter Gordon - Bop
TTITLE4=Dexter Gordon - Cherokee
TTITLE5=Dexter Gordon - Dexter's Mood
TTITLE6=Dexter Gordon - Dexter's Riff
TTITLE7=Dexter Gordon - Dextivity
TTITLE8=Dexter Gordon - Dextrose
TTITLE9=Dexter Gordon - Disorder at the Border
EXTD=
EXTT0=
EXTT1=
EXTT2=
EXTT3=
EXTT4=
EXTT5=
EXTT6=
EXTT7=
EXTT8=
EXTT9=
PLAYORDER=
